<svg xmlns="http://www.w3.org/2000/svg" viewBox="0 0 518 600" width="518" height="600" role="img" aria-label="tabular: clinical table rendering for R">
  <defs>
    <linearGradient id="bg" x1="0" y1="0" x2="0" y2="1">
      <stop offset="0" stop-color="#ffffff"/>
      <stop offset="1" stop-color="#eef3fb"/>
    </linearGradient>
    <clipPath id="hex"><polygon points="517.08,449.00 259.00,598.00 0.92,449.00 0.92,151.00 259.00,2.00 517.08,151.00"/></clipPath>
  </defs>

  <g clip-path="url(#hex)">
    <rect x="0" y="0" width="518" height="600" fill="url(#bg)"/>
    <g>
      <line x1="161.00" y1="130" x2="357.00" y2="130" stroke="#1e3a5f" stroke-width="4.5" stroke-linecap="round" opacity="1.0"/>
      <line x1="199.00" y1="147" x2="319.00" y2="147" stroke="#1e3a5f" stroke-width="4.5" stroke-linecap="round" opacity="1.0"/>
      <line x1="122.00" y1="176" x2="396.00" y2="176" stroke="#1e3a5f" stroke-width="2.8" stroke-linecap="butt" opacity="1.0"/>
      <line x1="141.67" y1="198" x2="193.67" y2="198" stroke="#3b82f6" stroke-width="6" stroke-linecap="round" opacity="1.0"/>
      <line x1="233.00" y1="198" x2="285.00" y2="198" stroke="#3b82f6" stroke-width="6" stroke-linecap="round" opacity="1.0"/>
      <line x1="324.33" y1="198" x2="376.33" y2="198" stroke="#3b82f6" stroke-width="6" stroke-linecap="round" opacity="1.0"/>
      <line x1="122.00" y1="220" x2="396.00" y2="220" stroke="#1e3a5f" stroke-width="1.7" stroke-linecap="butt" opacity="0.7"/>
      <line x1="132.00" y1="245" x2="198.00" y2="245" stroke="#64748b" stroke-width="5" stroke-linecap="round" opacity="1.0"/>
      <line x1="258.67" y1="245" x2="290.67" y2="245" stroke="#64748b" stroke-width="5" stroke-linecap="round" opacity="1.0"/>
      <line x1="350.00" y1="245" x2="382.00" y2="245" stroke="#64748b" stroke-width="5" stroke-linecap="round" opacity="1.0"/>
      <line x1="132.00" y1="269" x2="210.00" y2="269" stroke="#64748b" stroke-width="5" stroke-linecap="round" opacity="1.0"/>
      <line x1="258.67" y1="269" x2="290.67" y2="269" stroke="#64748b" stroke-width="5" stroke-linecap="round" opacity="1.0"/>
      <line x1="350.00" y1="269" x2="382.00" y2="269" stroke="#64748b" stroke-width="5" stroke-linecap="round" opacity="1.0"/>
      <line x1="132.00" y1="293" x2="190.00" y2="293" stroke="#64748b" stroke-width="5" stroke-linecap="round" opacity="1.0"/>
      <line x1="258.67" y1="293" x2="290.67" y2="293" stroke="#64748b" stroke-width="5" stroke-linecap="round" opacity="1.0"/>
      <line x1="350.00" y1="293" x2="382.00" y2="293" stroke="#64748b" stroke-width="5" stroke-linecap="round" opacity="1.0"/>
      <line x1="122.00" y1="316" x2="396.00" y2="316" stroke="#1e3a5f" stroke-width="2.8" stroke-linecap="butt" opacity="1.0"/>
      <line x1="122.00" y1="341" x2="274.00" y2="341" stroke="#64748b" stroke-width="3" stroke-linecap="round" opacity="0.9"/>
      <line x1="122.00" y1="356" x2="226.00" y2="356" stroke="#64748b" stroke-width="3" stroke-linecap="round" opacity="0.9"/>
    </g>
    <g fill="#0f2236"><g transform="translate(122.00 448) scale(0.06524 -0.06524)" fill="#0f2236"><path transform="translate(0 0)" d="M354 0Q281 0 238.0 35.5Q195 71 195 162V406H70V496H144Q195 496 204 546L219 626H301V496H497V406H301V164Q301 125 318.5 109.5Q336 94 379 94H495V0Z"/><path transform="translate(600 0)" d="M255 -12Q196 -12 156.0 8.5Q116 29 96.0 63.5Q76 98 76 139Q76 212 129.5 253.0Q183 294 281 294H409V305Q409 417 305 417Q262 417 232.5 398.5Q203 380 193 339H87Q95 417 154.5 462.5Q214 508 305 508Q415 508 465.0 454.0Q515 400 515 305V0H425L416 73H409Q387 38 354.0 13.0Q321 -12 255 -12ZM275 77Q340 77 372.5 116.5Q405 156 408 217H292Q235 217 211.5 198.5Q188 180 188 147Q188 114 211.5 95.5Q235 77 275 77Z"/><path transform="translate(1200 0)" d="M327 -12Q272 -12 234.5 10.5Q197 33 177 73H171L162 0H71V720H177V432Q195 462 234.0 485.0Q273 508 327 508Q389 508 438.0 478.5Q487 449 515.5 391.0Q544 333 544 248Q544 163 515.5 105.0Q487 47 438.0 17.5Q389 -12 327 -12ZM305 89Q362 89 399.5 128.5Q437 168 437 247Q437 327 399.5 367.0Q362 407 305 407Q248 407 210.5 367.5Q173 328 173 248Q173 169 210.5 129.0Q248 89 305 89Z"/><path transform="translate(1800 0)" d="M256 -12Q166 -12 119.5 43.5Q73 99 73 205V496H179V218Q179 157 205.5 122.5Q232 88 287 88Q342 88 379.0 125.0Q416 162 416 232V496H522V0H430L421 74H416Q396 38 354.0 13.0Q312 -12 256 -12Z"/><path transform="translate(2400 0)" d="M68 0V92H234V595Q234 628 202 628H82V720H221Q279 720 309.5 689.5Q340 659 340 601V92H507V0Z"/><path transform="translate(3000 0)" d="M255 -12Q196 -12 156.0 8.5Q116 29 96.0 63.5Q76 98 76 139Q76 212 129.5 253.0Q183 294 281 294H409V305Q409 417 305 417Q262 417 232.5 398.5Q203 380 193 339H87Q95 417 154.5 462.5Q214 508 305 508Q415 508 465.0 454.0Q515 400 515 305V0H425L416 73H409Q387 38 354.0 13.0Q321 -12 255 -12ZM275 77Q340 77 372.5 116.5Q405 156 408 217H292Q235 217 211.5 198.5Q188 180 188 147Q188 114 211.5 95.5Q235 77 275 77Z"/><path transform="translate(3600 0)" d="M77 0V92H198V371Q198 404 166 404H87V496H206Q247 496 273.0 472.5Q299 449 299 407V395H304Q315 451 351.5 479.5Q388 508 458 508H535V396H427Q368 396 336.0 355.0Q304 314 304 257V92H458V0Z"/></g></g>
  </g>

  <polygon points="517.08,449.00 259.00,598.00 0.92,449.00 0.92,151.00 259.00,2.00 517.08,151.00" fill="none" stroke="#cbd5e1" stroke-width="2.5"/>
  <polygon points="501.49,440.00 259.00,580.00 16.51,440.00 16.51,160.00 259.00,20.00 501.49,160.00" fill="none" stroke="#3b82f6" stroke-width="5"/>
</svg>
