<svg xmlns="http://www.w3.org/2000/svg" viewBox="0 0 1120 660" font-family="'DM Sans', system-ui, sans-serif" role="img" aria-label="Anatomy of a clinical table page: header section, title lines, data section, footnote lines">
  <defs>
    <style>
      .box    { fill: #ffffff; stroke: #c0504d; stroke-width: 1.6; }
      .mono   { font-family: 'DM Mono', ui-monospace, 'Courier New', monospace; font-size: 14px; fill: #1f2937; }
      .blank  { font-family: 'DM Mono', ui-monospace, monospace; font-size: 13px; fill: #9ca3af; }
      .tag    { fill: #ebf1de; stroke: #77933c; stroke-width: 1.2; }
      .taglbl { font-size: 14px; fill: #4f6228; font-weight: 600; }
      .tail   { fill: #ebf1de; stroke: #77933c; stroke-width: 1.2; }
      .rule   { stroke: #1f2937; stroke-width: 1; }
      .title  { font-size: 18px; fill: #111827; font-weight: 700; }
    </style>
  </defs>

  <text class="title" x="40" y="36">Anatomy of a clinical table page</text>

  <!-- ── 1. HEADER SECTION ───────────────────────────────────────────── -->
  <rect class="box" x="40" y="78" width="720" height="40"/>
  <text class="mono" x="54" y="103">Protocol: XYZ-123</text>
  <text class="mono" x="400" y="103" text-anchor="middle">Draft</text>
  <text class="mono" x="748" y="103" text-anchor="end">Page xx of yy</text>
  <polygon class="tail" points="800,104 778,98 800,92"/>
  <rect class="tag" x="800" y="84" width="170" height="28"/>
  <text class="taglbl" x="885" y="103" text-anchor="middle">Header Section</text>

  <text class="blank" x="400" y="140" text-anchor="middle">&lt;blank line&gt;</text>

  <!-- ── 2. TITLE LINES ──────────────────────────────────────────────── -->
  <rect class="box" x="40" y="154" width="720" height="110"/>
  <text class="mono" x="400" y="180" text-anchor="middle">Table No.</text>
  <text class="mono" x="400" y="204" text-anchor="middle">Primary Title</text>
  <text class="mono" x="400" y="228" text-anchor="middle">Title 2</text>
  <text class="mono" x="400" y="252" text-anchor="middle">Title X</text>
  <polygon class="tail" points="800,178 778,172 800,166"/>
  <rect class="tag" x="800" y="158" width="170" height="28"/>
  <text class="taglbl" x="885" y="177" text-anchor="middle">Title Lines</text>

  <text class="blank" x="400" y="286" text-anchor="middle">&lt;blank line&gt;</text>

  <!-- ── 3. DATA SECTION ─────────────────────────────────────────────── -->
  <rect class="box" x="40" y="300" width="720" height="196"/>
  <text class="mono" x="54" y="324">Subgroup Variable Description: Subgroup Variable Value</text>
  <text class="blank" x="400" y="348" text-anchor="middle">&lt;blank line&gt;</text>
  <line class="rule" x1="52" y1="362" x2="748" y2="362"/>
  <text class="mono" x="400" y="386" text-anchor="middle">&lt;Column Headers&gt;</text>
  <line class="rule" x1="52" y1="400" x2="748" y2="400"/>
  <text class="mono" x="400" y="462" text-anchor="middle">&lt;data content&gt;</text>
  <polygon class="tail" points="800,324 778,318 800,312"/>
  <rect class="tag" x="800" y="304" width="170" height="28"/>
  <text class="taglbl" x="885" y="323" text-anchor="middle">Data Section</text>

  <text class="blank" x="400" y="518" text-anchor="middle">&lt;blank line&gt;</text>

  <!-- ── 4. FOOTNOTE LINES ───────────────────────────────────────────── -->
  <rect class="box" x="40" y="532" width="720" height="104"/>
  <line class="rule" x1="52" y1="540" x2="748" y2="540"/>
  <text class="mono" x="54" y="560">Footnote 1</text>
  <text class="mono" x="54" y="578">Footnote X</text>
  <text class="mono" x="54" y="600">Program Path: &lt;program path&gt;</text>
  <text class="mono" x="54" y="620">Program Name: &lt;program name&gt;</text>
  <text class="mono" x="748" y="620" text-anchor="end">DDMMMYYYY:HH:MM:SS</text>
  <polygon class="tail" points="800,556 778,550 800,544"/>
  <rect class="tag" x="800" y="536" width="170" height="28"/>
  <text class="taglbl" x="885" y="555" text-anchor="middle">Footnote Lines</text>
</svg>
